Coordinates
version=1
nRows=24
nColumns=22
inDegrees=yes

Units are S.I. units (second, meters, Newtons, ...)
If the header above contains a line with 'inDegrees', this indicates whether rotational values are in degrees (yes) or radians (no).

endheader
time	pelvis_tilt	pelvis_list	pelvis_rotation	pelvis_tx	pelvis_ty	pelvis_tz	hip_flexion_r	hip_adduction_r	hip_rotation_r	knee_angle_r	ankle_angle_r	subtalar_angle_r	hip_flexion_l	hip_adduction_l	hip_rotation_l	knee_angle_l	ankle_angle_l	subtalar_angle_l	lumbar_extension	lumbar_bending	lumbar_rotation
      1.31000000	      0.83203121	      1.15945332	    -29.91469161	     -0.95744305	      0.90064573	     -0.43938282	     15.51529999	     -4.26192844	      0.84363679	    -43.04018125	     17.24306108	     -3.98143448	     -1.62533831	      3.53782224	    -10.91230132	    -14.89522767	     18.87217541	     -3.83329993	    -10.10279318	     -3.18062166	      3.93982571
      1.32000000	      0.86662834	      1.09669091	    -29.85549136	     -0.95591304	      0.90069997	     -0.43961273	     16.51197482	     -4.21997629	      0.58692545	    -44.37463046	     17.13510565	     -4.62745780	     -1.88637815	      3.56625938	    -10.87442345	    -14.69973533	     18.89551603	     -3.78893696	    -10.33042116	     -3.07651034	      3.65411288
      1.33000000	      0.87425690	      1.01163909	    -29.77713528	     -0.95429727	      0.90076248	     -0.43971514	     17.42869466	     -4.14023961	      0.28623811	    -45.40927323	     17.12129657	     -5.24137389	     -2.13961856	      3.54993485	    -10.81461874	    -14.51060574	     18.94454345	     -3.73697919	    -10.53738972	     -2.93494894	      3.35608591
      1.34000000	      0.85506307	      0.91469255	    -29.68186805	     -0.95258352	      0.90081529	     -0.43970850	     18.27668837	     -4.02988075	     -0.03445791	    -46.15346560	     17.17405402	     -5.76991449	     -2.37808550	      3.50057123	    -10.74712403	    -14.33008745	     19.00622659	     -3.68096691	    -10.71564828	     -2.76059045	      3.05054961
      1.35000000	      0.83936331	      0.80808172	    -29.58881497	     -0.95079596	      0.90088665	     -0.43957062	     19.04462842	     -3.90329560	     -0.35017863	    -46.62893041	     17.20520968	     -5.99499082	     -2.63735124	      3.44123639	    -10.65852135	    -14.14348379	     19.11597230	     -3.63449879	    -10.89904697	     -2.58086353	      2.74392137
      1.36000000	      0.75125195	      0.70474514	    -29.46542134	     -0.94891346	      0.90086792	     -0.43934631	     19.79751962	     -3.73893685	     -0.68418837	    -46.82760720	     17.32212424	     -6.30034577	     -2.80886582	      3.33382143	    -10.55778482	    -14.00279725	     19.16709158	     -3.58453413	    -10.99918855	     -2.35813254	      2.42738728
      1.37000000	      0.67608868	      0.61526562	    -29.39093115	     -0.94698754	      0.90081885	     -0.43893481	     20.50084182	     -3.56654060	     -0.94255752	    -46.80634494	     17.43352950	     -6.80414417	     -2.98659852	      3.23796575	    -10.55415938	    -13.88160506	     19.22758812	     -3.51239258	    -11.10021063	     -2.16672830	      2.16186258
      1.38000000	      0.59208202	      0.51119772	    -29.30936935	     -0.94495326	      0.90075371	     -0.43842290	     21.13456966	     -3.37168436	     -1.18528739	    -46.55066739	     17.47879345	     -6.86541573	     -3.17823954	      3.12763018	    -10.47187892	    -13.75110757	     19.29693960	     -3.48896946	    -11.19678241	     -1.95295375	      1.90895507
      1.39000000	      0.49934563	      0.42521341	    -29.23613142	     -0.94280970	      0.90062298	     -0.43778148	     21.72697444	     -3.18795991	     -1.40760728	    -46.08609381	     17.50493192	     -6.92045637	     -3.35069031	      3.02446304	    -10.41661940	    -13.64477751	     19.37099562	     -3.46648980	    -11.26542101	     -1.75530839	      1.67276339
      1.40000000	      0.40104402	      0.32675098	    -29.13481749	     -0.94058188	      0.90043539	     -0.43707277	     22.26772892	     -3.00076069	     -1.64579361	    -45.44955651	     17.48854870	     -6.98759306	     -3.49767966	      2.89519386	    -10.35388404	    -13.60183500	     19.49251457	     -3.43434168	    -11.34105234	     -1.53608162	      1.40630762
      1.41000000	      0.30565131	      0.23378612	    -29.06776152	     -0.93825006	      0.90019860	     -0.43617560	     22.75453504	     -2.80562125	     -1.82980839	    -44.63562640	     17.46736901	     -7.00908714	     -3.66609428	      2.77465438	    -10.29615803	    -13.54605944	     19.60355740	     -3.41259732	    -11.40486936	     -1.33420170	      1.19000349
      1.42000000	      0.21125500	      0.13623110	    -28.98947077	     -0.93580026	      0.89991676	     -0.43517441	     23.17877382	     -2.61037391	     -1.99880788	    -43.65716463	     17.43041402	     -6.99505891	     -3.83991555	      2.64549092	    -10.23998247	    -13.50378092	     19.73539139	     -3.39425458	    -11.47104883	     -1.12373528	      0.98594663
      1.43000000	      0.12744175	      0.02376620	    -28.90694276	     -0.93322583	      0.89960574	     -0.43402272	     23.52660119	     -2.41584826	     -2.17998404	    -42.52812661	     17.37798594	     -6.94557660	     -4.03478806	      2.50011692	    -10.19013447	    -13.47983326	     19.89899692	     -3.37237250	    -11.54784128	     -0.90890180	      0.77481107
      1.44000000	      0.07046981	     -0.10231455	    -28.81261506	     -0.93049694	      0.89928499	     -0.43276176	     23.78483301	     -2.23816762	     -2.37879425	    -41.26567288	     17.30813238	     -6.84278351	     -4.27381589	      2.35116238	    -10.15841835	    -13.45575747	     20.09377170	     -3.33885589	    -11.65325685	     -0.68531852	      0.54395886
      1.45000000	      0.00489909	     -0.22331837	    -28.72746833	     -0.92767552	      0.89889749	     -0.43132981	     24.00432973	     -2.05384491	     -2.55555229	    -39.88458068	     17.24499076	     -6.70588276	     -4.51334965	      2.19972199	    -10.10679381	    -13.43136199	     20.27834173	     -3.30789392	    -11.73949893	     -0.47248858	      0.35023334
      1.46000000	     -0.05142838	     -0.34852116	    -28.63928493	     -0.92473437	      0.89846637	     -0.42976314	     24.16754331	     -1.87774941	     -2.74485994	    -38.40842971	     17.16620856	     -6.52677077	     -4.77112201	      2.04271073	    -10.04975191	    -13.41655168	     20.47780257	     -3.27240926	    -11.83101384	     -0.26061180	      0.16691608
      1.47000000	     -0.07680021	     -0.47951986	    -28.55250088	     -0.92167586	      0.89802853	     -0.42806032	     24.25505926	     -1.71361416	     -2.93428775	    -36.85345333	     17.08120447	     -6.21437588	     -5.08277300	      1.89605959	     -9.97050038	    -13.38048870	     20.67022121	     -3.20646104	    -11.95216628	     -0.06093090	     -0.00063328
      1.48000000	     -0.15426496	     -0.59618418	    -28.46269390	     -0.91853681	      0.89744692	     -0.42622276	     24.37413581	     -1.53944012	     -3.14318810	    -35.25657987	     16.93333674	     -6.00202409	     -5.32025297	      1.71966618	     -9.94005502	    -13.39482069	     20.89824598	     -3.16421274	    -12.00497615	      0.15060507	     -0.16820728
      1.49000000	     -0.20774249	     -0.72423161	    -28.37584370	     -0.91529313	      0.89685416	     -0.42424757	     24.42922726	     -1.36428841	     -3.35258445	    -33.61510635	     16.77232588	     -5.70933478	     -5.60545978	      1.54117440	     -9.90048478	    -13.39302073	     21.12411669	     -3.08693582	    -12.08331304	      0.35993392	     -0.31843662
      1.50000000	     -0.25184992	     -0.84922611	    -28.30134077	     -0.91196659	      0.89621369	     -0.42211429	     24.45510006	     -1.19016587	     -3.55363351	    -31.96093758	     16.58959578	     -5.34333748	     -5.90863334	      1.36224880	     -9.87786149	    -13.39227247	     21.34813215	     -2.96822432	    -12.16532388	      0.55397356	     -0.44742508
      1.51000000	     -0.31244077	     -0.96837065	    -28.24380853	     -0.90855279	      0.89549065	     -0.41983141	     24.48369083	     -1.00322873	     -3.73249734	    -30.31427235	     16.37786669	     -4.98195180	     -6.20287960	      1.17359148	     -9.88566831	    -13.39551983	     21.57145922	     -2.83045823	    -12.21979254	      0.74810316	     -0.54494572
      1.52000000	     -0.33321161	     -1.08830080	    -28.20081398	     -0.90504723	      0.89476427	     -0.41739291	     24.45721412	     -0.82584360	     -3.87947160	    -28.68973660	     16.19996583	     -4.45261273	     -6.55422190	      1.00194229	     -9.88314761	    -13.38745247	     21.76788328	     -2.59224215	    -12.31275833	      0.91364998	     -0.60442225
      1.53000000	     -0.39928045	     -1.19842628	    -28.17794023	     -0.90144940	      0.89391678	     -0.41477775	     24.47493786	     -0.62313456	     -3.99515225	    -27.12249206	     15.97026999	     -4.09031128	     -6.85915558	      0.80399929	     -9.96038077	    -13.40092332	     21.99829058	     -2.41606314	    -12.34120304	      1.09191088	     -0.67526158
      1.54000000	     -0.43056852	     -1.31789151	    -28.16485733	     -0.89773901	      0.89307647	     -0.41200807	     24.43990231	     -0.42534631	     -4.08917916	    -25.61290880	     15.79202014	     -3.60763832	     -7.21727743	      0.61520563	     -9.99482292	    -13.41233076	     22.19058965	     -2.15626862	    -12.40653199	      1.25164753	     -0.68175966
